<svg xmlns="http://www.w3.org/2000/svg" version="1.1" xmlns:xlink="http://www.w3.org/1999/xlink" xmlns:svgjs="http://svgjs.dev/svgjs" width="1440" height="560" preserveAspectRatio="none" viewBox="0 0 1440 560"><g mask="url(&quot;#SvgjsMask1007&quot;)" fill="none"><rect width="1440" height="560" x="0" y="0" fill="rgba(0, 187, 249, 1)"></rect><path d="M0,570.448C105.811,570.969,185.127,481.936,281.137,437.457C396.1,384.198,541.733,382.754,620.081,283.181C702.941,177.874,728.883,30.493,705.117,-101.381C681.667,-231.505,589.039,-336.472,492.188,-426.483C402.64,-509.707,296.617,-587.709,174.554,-594.476C59.938,-600.83,-23.59,-487.087,-135.443,-461.277C-258.231,-432.944,-398.717,-505.232,-505.077,-437.651C-617.141,-366.446,-697.827,-233.689,-702.456,-100.998C-707.011,29.57,-609.746,138.955,-528.77,241.481C-462.241,325.716,-370.502,377.994,-279.362,434.696C-189.636,490.518,-105.672,569.927,0,570.448" fill="#0096c7"></path><path d="M1440 1065.807C1535.206 1063.065 1628.84 1028.82 1702.445 968.3720000000001 1771.806 911.4100000000001 1800.176 823.136 1835.8029999999999 740.7570000000001 1870.701 660.063 1905.962 580.577 1908.1680000000001 492.688 1910.672 392.93899999999996 1900.771 290.835 1849.241 205.39100000000002 1792.539 111.37200000000001 1709.865 29.91300000000001 1606.593-7.364000000000033 1500.47-45.66999999999996 1376.693-50.78099999999995 1275.017-1.879000000000019 1177.848 44.85500000000002 1131.819 153.01299999999998 1078.402 246.67399999999998 1033.97 324.58000000000004 1019.56 410.35900000000004 991.352 495.494 956.001 602.188 853.436 704.7239999999999 891.608 810.442 929.27 914.749 1067.124 936.96 1167.657 983.774 1255.382 1024.624 1343.27 1068.593 1440 1065.807" fill="#2ccaff"></path></g><defs><mask id="SvgjsMask1007"><rect width="1440" height="560" fill="#ffffff"></rect></mask></defs></svg>