<svg xmlns="http://www.w3.org/2000/svg" version="1.1" xmlns:xlink="http://www.w3.org/1999/xlink" xmlns:svgjs="http://svgjs.dev/svgjs" width="1440" height="1800" preserveAspectRatio="none" viewBox="0 0 1440 1800"><g mask="url(&quot;#SvgjsMask1036&quot;)" fill="none"><rect width="1440" height="1800" x="0" y="0" fill="rgba(239, 239, 239, 1)"></rect><path d="M0,686.902C156.472,682.884,317.687,781.4,459.228,714.573C603.722,646.352,704.184,493.565,739.538,337.736C772.73,191.436,666.715,55.669,642.298,-92.349C618.578,-236.141,695.179,-409.558,598.304,-518.434C501.3,-627.455,322.592,-582.304,179.756,-612.191C50.499,-639.236,-69.997,-699.309,-201.355,-685.752C-349.991,-670.412,-506.209,-635.805,-612.182,-530.458C-720.852,-422.429,-745.891,-261.646,-778.574,-111.942C-813.564,48.325,-863.816,214.806,-808.613,369.281C-751.608,528.797,-632.31,676.624,-474.641,738.556C-323.448,797.944,-162.384,691.072,0,686.902" fill="#bfbfbf"></path><path d="M1440 2629.371C1594.196 2635.433 1733.337 2540.438 1854.152 2444.433 1966.725 2354.978 2039.406 2231.75 2102.794 2102.688 2167.8360000000002 1970.26 2253.504 1831.95 2226.182 1686.964 2199.0950000000003 1543.225 2080.944 1432.108 1960.726 1348.788 1856.524 1276.569 1723.769 1283.038 1600.516 1253.333 1484.541 1225.382 1376.842 1172.134 1257.766 1179.3690000000001 1117.096 1187.917 943.636 1184.13 860.973 1298.27 777.252 1413.871 869.569 1575.016 867.864 1717.739 866.437 1837.239 822.056 1952.879 851.771 2068.635 885.204 2198.871 948.935 2319.898 1046.259 2412.673 1156.937 2518.178 1287.21 2623.365 1440 2629.371" fill="#ffffff"></path></g><defs><mask id="SvgjsMask1036"><rect width="1440" height="1800" fill="#ffffff"></rect></mask></defs></svg>