<svg version="1.2" xmlns="http://www.w3.org/2000/svg" viewBox="0 0 1028 599" width="1028" height="499">
	<title>undraw_open_source_-1-qxw-svg</title>
	<style>
		.s0 { fill: #f2f2f2 } 
		.s1 { fill: #3f3d56 } 
		.s2 { opacity: .1;fill: #000000 } 
		.s3 { fill: #00bbf9 } 
		.s4 { fill: #8a8b8c } 
		.s5 { fill: #2f2e41 } 
		.s6 { fill: #a0616a } 
		.s7 { fill: #d0cde1 } 
		.s8 { fill: #ffb9b9 } 
		.s9 { fill: #f15bb5 } 
	</style>
	<path id="Layer" class="s0" d="m332 584c-161.5 0-292-130.5-292-292 0-161.5 130.5-292 292-292 161.5 0 292 130.5 292 292 0 161.5-130.5 292-292 292z"/>
	<path id="Layer" class="s1" d="m1028 518q0 0.3 0 0.5 0 0.3 0 0.6-0.1 0.2-0.1 0.5 0 0.3-0.1 0.5c-7.1 43.8-234.4 78.9-513.8 78.9-279.4 0-506.7-35.1-513.8-78.9q-0.1-0.2-0.1-0.5 0-0.3-0.1-0.5 0-0.3 0-0.6 0-0.2 0-0.5 0-0.3 0-0.6 0-0.2 0-0.3 0 0 0-0.1 0 0 0 0 0 0 0 0 0 0 0-0.1 0.1-0.6 0.2-1.3c3.3-17.9 43.4-34.3 108.8-47.5 53.4-10.7 123.8-19.3 204.9-24.7 61.5-4.1 129.1-6.4 200.1-6.4 57.1 0 112.1 1.5 163.4 4.2q16.1 0.8 31.7 1.8c71.4 4.7 134.7 11.7 185.7 20.6 31.3 5.4 58.1 11.6 79.2 18.2 32.4 10.2 51.6 21.7 53.8 33.8q0.1 0.7 0.2 1.3 0 0.1 0 0.1 0 0 0 0 0 0 0 0 0 0.1 0 0.1 0 0.1 0 0.3 0 0.3 0 0.6z"/>
	<path id="Layer" class="s2" d="m501 596c-91.2 0-165-10.7-165-24 0-13.3 73.8-24 165-24 91.2 0 165 10.7 165 24 0 13.3-73.8 24-165 24z"/>
	<path id="Layer" class="s2" d="m974 481.8c-5.8 1.6-12.3 3.2-19.4 4.6-29.4 5.8-69.5 9.3-113.6 9.3-49.2 0-93.4-4.4-123.3-11.4-24.9-5.9-39.9-13.4-39.9-21.7 0-7.3 11.6-14.1 31.3-19.6 71.4 4.7 134.7 11.7 185.7 20.6 31.3 5.4 58.1 11.6 79.2 18.2z"/>
	<path id="Layer" class="s2" d="m532 470.7c0 15.2-94.9 27.4-212 27.4-117.1 0-212-12.2-212-27.4q0-0.3 0.1-0.7 0-0.3 0.2-0.6 0.1-0.4 0.3-0.7 0.1-0.3 0.4-0.6c53.4-10.7 123.9-19.3 204.9-24.7q3 0 6.1 0c117.1 0 212 12.2 212 27.3z"/>
	<path id="Layer" class="s3" d="m416.5 335h41.7v134.6h-41.7z"/>
	<path id="Layer" class="s3" d="m279.5 271.9h41.7v197.7h-41.7z"/>
	<path id="Layer" class="s3" d="m143.7 271.9h41.7v197.7h-41.7z"/>
	<path id="Layer" class="s3" d="m211.6 271.9h41.7v134.5h-41.7z"/>
	<path id="Layer" class="s3" d="m347.4 271.9h41.7v39.3h-41.7z"/>
	<path id="Layer" class="s4" d="m347.4 335h41.7v134.6h-41.7z"/>
	<path id="Layer" class="s3" d="m416.5 271.9h109.5v39.3h-109.5z"/>
	<path id="Layer" fill-rule="evenodd" class="s3" d="m815.1 261q42.7 0 72.7 29.9 3.6 3.5 6.7 7.3 3.2 3.8 5.9 8 2.8 4.1 5.1 8.5 2.3 4.4 4.2 9c2.4 6.2 4.3 12.7 5.5 19.3 1.3 6.5 1.9 13.2 1.9 19.9 0 6.7-0.6 13.4-1.8 20-1.3 6.5-3.1 13-5.5 19.2q-1.9 4.6-4.2 8.9-2.3 4.3-5 8.4-2.7 4.1-5.9 7.8-3.1 3.8-6.7 7.2-3.6 3.6-7.6 6.9-3.9 3.2-8.2 6-4.3 2.9-8.8 5.3-4.5 2.4-9.2 4.4-4.7 1.9-9.5 3.4-4.8 1.4-9.7 2.4-4.9 1-9.9 1.5-5 0.5-10 0.5-5 0-9.9-0.5-5-0.5-9.9-1.4-4.8-1-9.6-2.5-4.7-1.4-9.3-3.3c-6.2-2.7-12.1-5.9-17.6-9.6-5.5-3.8-10.7-8-15.5-12.8-4.7-4.7-9-9.9-12.7-15.4-3.8-5.6-7-11.5-9.6-17.6-2.5-6.2-4.4-12.6-5.7-19.1-1.3-6.5-1.9-13.1-1.9-19.7 0-6.7 0.6-13.3 1.9-19.8 1.3-6.5 3.3-12.9 5.8-19q1.9-4.7 4.3-9.2 2.4-4.4 5.3-8.6 2.8-4.2 6-8.1 3.3-4 6.9-7.5 29.1-29.7 71.5-29.7zm0.3 18.4q-34.9 0-58.7 24.4-3 2.9-5.6 6.1-2.6 3.3-5 6.7-2.3 3.4-4.3 7.1-2 3.6-3.6 7.5c-2.1 5-3.7 10.2-4.8 15.5-1.1 5.3-1.7 10.7-1.7 16.1 0 5.4 0.6 10.9 1.7 16.2 1.1 5.3 2.7 10.5 4.8 15.5 2.2 5 4.8 9.8 7.9 14.4 3.1 4.5 6.6 8.8 10.5 12.6 3.9 3.9 8.2 7.4 12.7 10.5 4.6 3 9.4 5.6 14.5 7.8 5 2.1 10.2 3.6 15.5 4.7 5.3 1 10.8 1.6 16.2 1.6 5.4 0 10.8-0.6 16.2-1.7 5.3-1 10.5-2.6 15.5-4.7q3.8-1.6 7.5-3.6 3.7-2 7.2-4.3 3.5-2.3 6.8-4.9 3.2-2.6 6.2-5.6 23.9-23.3 23.9-58.4 0-4.1-0.4-8.2-0.4-4.1-1.2-8.1-0.7-4-1.9-8-1.2-3.9-2.7-7.7-1.6-3.8-3.5-7.4-1.9-3.6-4.2-7-2.2-3.4-4.8-6.5-2.6-3.2-5.5-6-24.6-24.6-59.2-24.6zm-1.2 66.6l-13.7 7.1q-0.4-1-1-1.9-0.5-0.9-1.2-1.7-0.7-0.8-1.5-1.5-0.8-0.7-1.7-1.3-0.6-0.4-1.3-0.7-0.8-0.3-1.5-0.6-0.7-0.2-1.5-0.3-0.8-0.2-1.6-0.2-13.6 0-13.6 18 0 8.2 3.4 13.1 3.5 4.9 10.2 4.9 8.9 0 12.6-8.7l12.5 6.4c-1.2 2.4-2.8 4.6-4.7 6.6-1.9 2-4 3.7-6.4 5.1-2.3 1.4-4.9 2.5-7.5 3.2-2.7 0.7-5.4 1.1-8.1 1.1q-13.7 0-22-8.4-8.4-8.4-8.4-23.3 0-14.5 8.5-23.1 8.4-8.5 21.3-8.5 19 0 27.2 14.7zm58.7 0l-13.4 7.1q-0.5-1-1-1.9-0.6-0.9-1.2-1.7-0.7-0.8-1.5-1.5-0.8-0.7-1.7-1.3-0.7-0.4-1.4-0.7-0.8-0.4-1.5-0.6-0.8-0.2-1.6-0.3-0.8-0.2-1.6-0.2-13.7 0-13.7 18 0 8.2 3.5 13.1 3.5 4.9 10.2 4.9 8.9 0 12.5-8.7l12.8 6.4q-1 1.8-2.2 3.4-1.3 1.7-2.7 3.2-1.4 1.5-3 2.8-1.6 1.2-3.4 2.3-1.7 1.1-3.6 1.9-1.9 0.8-3.8 1.3-2 0.6-4 0.8-2 0.3-4.1 0.3-13.8 0-22.1-8.4-8.3-8.4-8.2-23.3 0-14.5 8.4-23.1 8.5-8.5 21.4-8.5 18.9 0 26.9 14.7z"/>
	<path id="Layer" class="s2" d="m753.4 510.3c0 48.8-67.9 33.7-151.1 33.7-83.2 0-150.1 15.1-150.1-33.7 0-48.7 67.9-59.3 151.1-59.3 83.2 0 150.1 10.6 150.1 59.3z"/>
	<path id="Layer" class="s1" d="m753.4 498.3c0 48.8-67.9 33.7-151.1 33.7-83.2 0-150.1 15.1-150.1-33.7 0-48.7 67.9-59.3 151.1-59.3 83.2 0 150.1 10.6 150.1 59.3z"/>
	<path id="Layer" class="s5" d="m739.5 410.8l3.5 14.2q0 0.1 0 0.1 0 0.1 0 0.1 0 0.1 0 0.2 0 0 0 0.1l-15.6 48.7q-0.1 0.3-0.4 0.4-0.2 0.2-0.5 0.2-0.4-0.1-0.6-0.3-0.2-0.2-0.2-0.5l-2.2-19q0 0 0-0.1 0 0 0-0.1 0 0 0-0.1 0 0 0 0l14.3-43.9q0.1-0.3 0.4-0.5 0.2-0.1 0.5-0.1 0.3 0 0.5 0.2 0.3 0.2 0.3 0.4z"/>
	<path id="Layer" class="s0" d="m738.3 412l3.1 12.2-13.7 44.4-3.2-13.8 13.8-42.8z"/>
	<path id="Layer" class="s5" d="m669.1 478.1c0.5 1.6 54.9-0.5 55.4-1.1q0.2-0.2 0.4-0.5 0.1-0.2 0.3-0.5 0.1-0.3 0.3-0.5 0.1-0.3 0.2-0.6c0.5-1 1-2.1 1-2.1l-2.2-17.1-53.9-1.9c0 0-1.3 14.5-1.6 21.1q0 0.4 0 0.8 0 0.4 0 0.8 0 0.4 0 0.8 0 0.4 0.1 0.8z"/>
	<path id="Layer" class="s2" d="m717.7 458l1 14.8h-23.7v-14.8h22.7z"/>
	<path id="Layer" class="s2" d="m687 462.8l0.2-0.1-0.7 6.4h-13.2v-6.3h13.7z"/>
	<path id="Layer" class="s2" d="m669.1 478.1c0.5 1.6 54.9-0.5 55.4-1.1q0.2-0.2 0.4-0.5 0.1-0.2 0.3-0.5 0.1-0.3 0.3-0.5 0.1-0.3 0.2-0.6h-56.7q0 0.4 0 0.8 0 0.4 0 0.8 0 0.4 0 0.8 0 0.4 0.1 0.8z"/>
	<path id="Layer" class="s5" d="m585.1 422.6h14.7l36.5-14.3c0 0 25.9-10.5 23.8 9.6-2.1 20-5.8 47-5.8 47 0 0-11.7-5.3-18-3.7-6.3 1.6-2.1-32.3-2.1-32.3 0 0-51.8 24.9-56.5 21.7-4.8-3.2-5.9-25.4-5.9-25.4z"/>
	<path id="Layer" class="s2" d="m585.1 422.6h14.7l36.5-14.3c0 0 25.9-10.5 23.8 9.6-2.1 20-5.8 47-5.8 47 0 0-11.7-5.3-18-3.7-6.3 1.6-2.1-32.3-2.1-32.3 0 0-51.8 24.9-56.5 21.7-4.8-3.2-5.9-25.4-5.9-25.4z"/>
	<path id="Layer" class="s6" d="m608.4 376.3l17.9 25.7 41.7 34.9c0 0 38.6 9 33.3 15.3-5.3 6.3-37.5-6.3-37.5-6.3 0 0-48.1-34.9-49.7-37.6-1.6-2.6-19-27.4-19-27.4z"/>
	<path id="Layer" class="s2" d="m608.4 376.3l17.9 25.7 41.7 34.9c0 0 38.6 9 33.3 15.3-5.3 6.3-37.5-6.3-37.5-6.3 0 0-48.1-34.9-49.7-37.6-1.6-2.6-19-27.4-19-27.4z"/>
	<path id="Layer" class="s6" d="m605.7 348.1c-13.2 0-23.8-10.6-23.8-23.8 0-13.1 10.6-23.7 23.8-23.7 13.1 0 23.7 10.6 23.7 23.7 0 13.2-10.6 23.8-23.7 23.8z"/>
	<path id="Layer" class="s6" d="m604.1 345.5c0 0-7.9 13.7-9.5 21.1-1.6 7.4-23.8-14.8-23.8-14.8l-2.9-7.7c0 0 20.9-9.7 19.3-17.7-1.6-7.9 16.9 19.1 16.9 19.1z"/>
	<path id="Layer" class="s7" d="m597.7 355.5l11.7 22.7c0 0-2.7 11.1-6.9 12.2-4.2 1-22.2-13.8-22.2-13.8z"/>
	<path id="Layer" class="s6" d="m608.3 386.7l21.7 28.5 51.7 38.6c0 0 37.6 7.9 29.1 13.7-8.4 5.8-32.8-5.3-32.8-5.3 0 0-52.3-28-63.4-39.6-11.1-11.6-31.7-31.2-31.7-31.2z"/>
	<path id="Layer" class="s5" d="m579.2 431.1l6.4 10 37.8-11.9q3.1-1 6.3-1.3 3.2-0.3 6.4 0.1 3.2 0.4 6.3 1.4 3 1.1 5.8 2.8c6.6 4.1 10.8 10.7 1.3 20.5-19 19.6-31.7 9-31.7 9 0 0-63.9 30.1-74.5 15.3-10.6-14.8-11.1-22.2-11.1-22.2 0 0 40.7-25.3 47-23.7z"/>
	<path id="Layer" class="s7" d="m658.5 465.9c0 0 16.9 11.1-3.2 16.4-20.1 5.3-34.8-2.1-34.8-2.1 0 0-17.5 0-17.5-9 0-9 5.8-10 5.8-10l18 2.6c0 0 21.7-5.8 31.7 2.1z"/>
	<path id="Layer" class="s5" d="m625.2 318.4q0.6 0.3 1.2 0.5 0.6 0.3 1.2 0.5 0.6 0.3 1.3 0.4 0.6 0.2 1.2 0.3 0.7 0.2 1.4 0.1 0.6-0.1 1.2-0.4 0.7-0.2 1.2-0.7 0.5-0.4 0.8-0.9 0.2-0.4 0.3-0.7 0.1-0.3 0.2-0.7 0-0.4 0.1-0.7 0-0.4 0-0.7c0-2.9-0.2-6.1-2-8.3-1.2-1.4-2.9-2.3-4.1-3.7q-0.3-0.4-0.6-0.8-0.3-0.4-0.5-0.9-0.3-0.4-0.5-0.8-0.3-0.5-0.5-0.9c-2.3-4.4-5.8-8.7-10.7-10q-0.7-0.1-1.5-0.2-0.8-0.2-1.6-0.2-0.8-0.1-1.5-0.1-0.8 0-1.6 0.1l-12.2 0.1q-0.8 0-1.5 0-0.7 0.1-1.5 0.1-0.7 0.1-1.4 0.3-0.8 0.1-1.5 0.3c-3.9 1.1-6.8 4.5-9.4 7.6q-0.8 0.9-1.5 1.8-0.7 0.9-1.4 1.8-0.6 0.9-1.3 1.9-0.6 1-1.2 2-0.8 1.4-1.4 3-0.6 1.5-1 3.2-0.4 1.6-0.5 3.2-0.2 1.7-0.2 3.4 0 0.4 0 0.8 0.1 0.4 0.1 0.9 0.1 0.4 0.2 0.8 0 0.4 0.2 0.9 0.1 0.3 0.2 0.7 0.2 0.4 0.4 0.7 0.1 0.4 0.3 0.8 0.2 0.3 0.4 0.7c2.3 4.5 3.6 10.1 1.1 14.4 4.4-1.8 8.9-4.2 11.8-8 1.3-1.7 2.4-3.8 4.1-5 1.8-1.3 4.7-1.4 5.8 0.5q0.1 0.2 0.3 0.5 0.1 0.3 0.1 0.6 0.1 0.4 0.1 0.7 0.1 0.3 0.1 0.6 0 0.5 0 1 0 0.5 0.1 1.1 0.1 0.5 0.2 1 0.2 0.5 0.3 1 0.2 0.5 0.6 0.8 0.3 0.4 0.8 0.7 0.4 0.3 0.9 0.4 0.6 0 1.1 0c2.3-0.7 2-4.2 3.8-5.8 1.4-1.2 3.4-1 5.2-1.6q0.7-0.2 1.4-0.7 0.7-0.4 1.2-1 0.6-0.5 1-1.2 0.5-0.6 0.8-1.4c0.6-1.4 0.6-5.3 1.8-6.1 1.6-1 5.1 0.6 6.6 1.3z"/>
	<path id="Layer" class="s7" d="m566 341.6q0.4-0.1 0.8-0.1 0.4-0.1 0.8-0.1 0.4 0 0.9 0.1 0.4 0 0.8 0.1c3.4 1 11 3.4 12.6 7 2.1 4.8 9.5 12.2 9.5 12.2 0 0 10 10 7.9 16.9-2.1 6.9-10 14.8-10 14.8 0 0 2.1 32.7-8.5 41.2-10.5 8.5-14.8 2.6-14.8 10.6 0 7.9-32.7 32.7-39.1 17.4 0 0 3.2-28.5 2.1-38.6-1-9.9 0.5-71.6 37-81.5z"/>
	<path id="Layer" class="s7" d="m582.9 355c0 0 32.3 23.8 26.5 33.8 0 0-19.6 9.5-23.8 9-4.2-0.6-20.6-19-24.8-20.6-4.3-1.6-6.4-30.1 22.1-22.2z"/>
	<path id="Layer" class="s5" d="m493.8 376.3c-5 1.7-9.5 5.6-10.6 10.8-0.4 2.4-0.2 4.9-0.6 7.4-0.9 5.6-5.3 9.8-9.4 13.8-4 4-8.2 8.6-8.5 14.3-0.3 6.2 4.2 12.1 3.4 18.2-0.9 7.2-8.5 11.9-10.4 18.9-1.2 4.6 0.3 9.7 2.8 13.8 4.9 7.8 13.1 13.2 21.8 16 8.8 2.9 18.1 3.5 27.3 3.6 11.2 0.1 23.4-0.9 31.8-8.3q1.8-1.6 3.3-3.4 1.4-1.9 2.5-4.1 1.1-2.1 1.8-4.4 0.6-2.3 0.9-4.7c0.8-8.5-2.8-17.4-0.3-25.6 1.5-5.2 5.4-10 4.8-15.3-0.5-5.3-5.1-9-8.3-13.3-2.9-4-4.7-8.7-6.5-13.3l-6-15.8c-1.2-3.1-2.5-6.4-5.1-8.4-4.9-3.9-12.8-3.1-18.5-2.3-5.4 0.7-11.1 0.3-16.2 2.1z"/>
	<path id="Layer" class="s8" d="m495.7 422.4c0 0 2.6 8.6-17.3 18.6-19.9 9.9 2 20.6 2 20.6l23.3 5.3c0 0 23.9-3.3 26.5-7.3 2.7-4 7.3-17.3 6-19.3q-0.4-0.5-0.8-1-0.3-0.5-0.8-1-0.4-0.5-0.8-1-0.5-0.5-0.9-1c-0.3-0.3-16-2.6-15.3-9.9 0.7-7.3-21.9-4-21.9-4z"/>
	<path id="Layer" class="s2" d="m495.7 422.4c0 0 2.6 8.6-17.3 18.6-19.9 9.9 2 20.6 2 20.6l23.3 5.3c0 0 23.9-3.3 26.5-7.3 2.7-4 7.3-17.3 6-19.3q-0.4-0.5-0.8-1-0.3-0.5-0.8-1-0.4-0.5-0.8-1-0.5-0.5-0.9-1c-0.3-0.3-16-2.6-15.3-9.9 0.7-7.3-21.9-4-21.9-4z"/>
	<path id="Layer" class="s8" d="m508.6 436c-11.7 0-21.2-9.5-21.2-21.3 0-11.7 9.5-21.2 21.2-21.2 11.8 0 21.3 9.5 21.3 21.2 0 11.8-9.5 21.3-21.3 21.3z"/>
	<path id="Layer" class="s9" d="m506.3 459.6c0 0-25.6-1.9-26.1-19.6 0 0-9.1-1-11.8 1.6-2.6 2.7-11.2 4.7-11.2 11.3 0 6.7 14.6 26.6 14.6 26.6 0 0 7.9 26.6 4.6 31.2-3.3 4.7-4 16.6-4 16.6 0 0 33.3-2.6 38.6 0 5.3 2.7 26.5 2.7 27.9 0 1.3-2.6-1.4-35.8-1.4-35.8 0 0 6-8 4.7-17.3l15.9-18.6c0 0-5.9-17.9-15.2-17.9 0 0-12.7-3.4-13-1.7-0.3 1.7 6.3 20.3-23.6 23.6z"/>
	<path id="Layer" class="s8" d="m446.5 518c0 0 6 9.3 21.3 11.3 15.3 2 17.9-3.3 16.6-4.6-1.3-1.3-17.3-7.3-17.3-7.3l-9.3-7.3z"/>
	<path id="Layer" class="s8" d="m555.5 510.1l-17.3 9.9c0 0-22.6-1.3-13.9 5.4 8.6 6.6 24.5 3.9 24.5 3.9l15.3-7.3z"/>
	<path id="Layer" class="s5" d="m469.1 527.3c0 0-15.9 39.2 3.3 45.2 19.3 6 72.5 4.7 84.4-3.3 12-8 15.3-18.6 13.3-21.9-2-3.3-15.3-12.6-24.6-13.3-9.3-0.7-76.4-6.7-76.4-6.7z"/>
	<path id="Layer" class="s2" d="m469.1 527.3c0 0-15.9 39.2 3.3 45.2 19.3 6 72.5 4.7 84.4-3.3 12-8 15.3-18.6 13.3-21.9-2-3.3-15.3-12.6-24.6-13.3-9.3-0.7-76.4-6.7-76.4-6.7z"/>
	<path id="Layer" class="s5" d="m544.4 529.8c0 0 56.3-20.4 55.6 4.2-0.7 24.6-35.9 31.2-35.9 31.2l-10.6 1.3-58.5 2c0 0 2-10.6-2.6-11.9 0 0 15.2-4 15.9-4.7 0.7-0.6 38.5-13.9 41.2-14.6 2.7-0.7 10.6-6 16.6-5.3 0 0 6.7-5.3 14-4l-20.6 1.3z"/>
	<path id="Layer" class="s2" d="m544.4 529.8c0 0 56.3-20.4 55.6 4.2-0.7 24.6-35.9 31.2-35.9 31.2l-10.6 1.3-58.5 2c0 0 2-10.6-2.6-11.9 0 0 15.2-4 15.9-4.7 0.7-0.6 38.5-13.9 41.2-14.6 2.7-0.7 10.6-6 16.6-5.3 0 0 6.7-5.3 14-4l-20.6 1.3z"/>
	<path id="Layer" class="s5" d="m534.4 533.1l7.1 16.2 43.2-15.3 3.3-8.6-11.3-2-22.7 3.9-9.8 2.7-9.8 3.1z"/>
	<path id="Layer" class="s2" d="m534.4 533.1l7.1 16.2 43.2-15.3 3.3-8.6-11.3-2-22.7 3.9-9.8 2.7-9.8 3.1z"/>
	<path id="Layer" class="s5" d="m442.5 552.6c0 0 12.7 15.9 27.3 19.9 14.6 4 22.6-1.3 22.6-1.3l-4.7-18.6-2-12-8.6-5.9-17.3-8-20.6-6.7c0 0-8.6-1.3-8.6 0 0 1.4 8 21.3 8 21.3z"/>
	<path id="Layer" class="s0" d="m457.8 561.2c0 0 2.7 19.3 6 20.6 3.3 1.4 13.3-1.3 15.9-2.6 2.7-1.4 11.7-7.5 11.7-7.5 0 0-31.6-11.8-33.6-10.5z"/>
	<path id="Layer" class="s8" d="m518.3 563.2l12.6 2-1.3 15.3-17.6-4.3 6.3-13z"/>
	<path id="Layer" class="s0" d="m526.2 567.5c0 0-5.9 7 0 11l4 3.3c0 0 13.3 2.7 14.7 4 1.3 1.3 6.6-2 6.6-2 0 0 0.7-19.9 0-21.2-0.7-1.4-8.6-2.7-9.3-1.4-0.7 1.4-8.6 3.4-13.3 2z"/>
	<path id="Layer" class="s5" d="m473.1 532c0 0-46.5-27.2-53.8-17.3-7.3 10-15.3 23.9 6 34.6 21.2 10.6 87.7 32.5 87.7 32.5 0 0 9.9-15.3 9.9-19.2 0 0-35.2-16-41.2-17.3-5.9-1.3-29.9-16.6-33.2-18-3.3-1.3-8-5.3-8-5.3z"/>
	<path id="Layer" class="s9" d="m459.8 449.6l-2.6 2c0 0-6 15.3-6.7 23.9-0.7 8.7-8.6 35.2-8 38.6 0.7 3.3 1.4 5.9 5.4 9.3 0 0 5.3-12 14.6-10l11.3-41.2z"/>
	<path id="Layer" class="s9" d="m552.8 449.6l5.3 6c0 0 3.4 8 3.4 10 0 2 6.6 31.2 7.3 32.5 0.6 1.3 3.3 18 0 21.9-3.4 4-9.3 6.7-9.3 6.7 0 0 4-14-8.7-14.6l1.4-5.3-12-39.9z"/>
	<path id="Layer" class="s1" d="m461.1 495.4v35q0 1.6 0.7 3.1 0.6 1.6 1.8 2.8 1.1 1.1 2.6 1.8 1.6 0.6 3.2 0.7l73.2 1q1.7 0.1 3.2-0.5 1.5-0.6 2.7-1.8 1.2-1.1 1.9-2.6 0.7-1.5 0.7-3.1l1.4-35c0-1.2-0.1-2.3-0.5-3.3-0.4-1.1-1-2-1.8-2.9-0.8-0.8-1.7-1.4-2.7-1.9-1.1-0.4-2.2-0.7-3.3-0.7l-74.5-1.1c-1.1 0-2.2 0.2-3.3 0.6-1 0.5-2 1.1-2.8 1.9-0.7 0.7-1.4 1.7-1.8 2.7-0.4 1-0.7 2.1-0.7 3.3z"/>
	<path id="Layer" class="s5" d="m509.9 414.1c-12.7 0-22.9-5.6-22.9-12.4 0-6.8 10.2-12.3 22.9-12.3 12.6 0 22.9 5.5 22.9 12.3 0 6.8-10.3 12.4-22.9 12.4z"/>
	<path id="Layer" class="s0" d="m509 519c-3 0-5.3-2.3-5.3-5.3 0-2.9 2.3-5.3 5.3-5.3 2.9 0 5.3 2.4 5.3 5.3 0 3-2.4 5.3-5.3 5.3z"/>
</svg>