<svg version="1.2" xmlns="http://www.w3.org/2000/svg" viewBox="0 0 620 563" width="620" height="400">
	<title>undraw_pay_online_re_aqe6-svg</title>
	<style>
		.s0 { fill: #f2f2f2 } 
		.s1 { fill: #ffffff } 
		.s2 { fill: #e6e6e6 } 
		.s3 { fill: #a0616a } 
		.s4 { fill: #2f2e41 } 
		.s5 { fill: #3f3d56 } 
		.s6 { fill: #00bbf9 } 
		.s7 { fill: #cccccc } 
	</style>
	<path id="Layer" class="s0" d="m60.4 166.6c0-14.8 12-26.8 26.8-26.8h226.9c14.8 0 26.8 12 26.8 26.8v224.1c0 14.8-12 26.7-26.8 26.7h-226.9c-14.8 0-26.8-11.9-26.8-26.7z"/>
	<path id="Layer" class="s1" d="m134.8 145.3c-9 0-18 1.8-26.4 5.3-8.3 3.5-15.9 8.5-22.3 14.9-6.4 6.4-11.5 14-14.9 22.4-3.5 8.4-5.3 17.3-5.3 26.4v176.4c0 2.8 0.6 5.5 1.6 8.1 1.1 2.6 2.7 4.9 4.6 6.9 2 2 4.3 3.6 6.9 4.6 2.6 1.1 5.4 1.6 8.2 1.6h144.8c13.6 0 27-2.6 39.6-7.8 12.5-5.2 23.9-12.8 33.5-22.4 9.6-9.6 17.2-21 22.4-33.6 5.2-12.5 7.9-26 7.9-39.5v-142c0-2.8-0.6-5.6-1.6-8.1-1.1-2.6-2.7-5-4.6-6.9-2-2-4.3-3.6-6.9-4.6-2.6-1.1-5.4-1.7-8.2-1.7z"/>
	<!-- <path id="Layer" class="s2" d="m587.7 48.2h-566.7q-0.5 0-0.7-0.3-0.3-0.3-0.3-0.7 0-0.4 0.3-0.7 0.2-0.3 0.7-0.3h566.7q0.4 0 0.7 0.3 0.3 0.3 0.3 0.7 0 0.4-0.3 0.7-0.3 0.3-0.7 0.3z"/> -->
	<!-- <path id="Layer" class="s2" d="m49.3 18.2c-4.7 0-8.4-3.9-8.4-8.6 0-4.8 3.7-8.7 8.4-8.7 4.7 0 8.5 3.9 8.5 8.7 0 4.7-3.8 8.6-8.5 8.6z"/> -->
	<!-- <path id="Layer" class="s2" d="m78.5 18.2c-4.6 0-8.4-3.9-8.4-8.6 0-4.8 3.8-8.7 8.4-8.7 4.7 0 8.5 3.9 8.5 8.7 0 4.7-3.8 8.6-8.5 8.6z"/> -->
	<!-- <path id="Layer" class="s2" d="m107.7 18.2c-4.6 0-8.4-3.9-8.4-8.6 0-4.8 3.8-8.7 8.4-8.7 4.7 0 8.5 3.9 8.5 8.7 0 4.7-3.8 8.6-8.5 8.6z"/> -->
	<!-- <path id="Layer" class="s2" d="m141.1 16.4q-0.1 0-0.2 0-0.1 0-0.2-0.1-0.1 0-0.2-0.1-0.1 0-0.2-0.1l-5.7-5.8q-0.1-0.2-0.2-0.4-0.1-0.1-0.1-0.3 0-0.2 0.1-0.4 0.1-0.2 0.2-0.3l5.7-5.9q0.3-0.3 0.7-0.3 0.5 0 0.8 0.3 0.3 0.3 0.3 0.7 0 0.4-0.3 0.7l-5.1 5.2 5.1 5.1q0.2 0.2 0.2 0.5 0.1 0.3 0 0.6-0.1 0.3-0.4 0.4-0.2 0.2-0.5 0.2z"/> -->
	<!-- <path id="Layer" class="s2" d="m150.6 16.4q-0.3 0-0.5-0.2-0.3-0.1-0.4-0.4-0.1-0.3 0-0.6 0-0.3 0.2-0.5l5-5.1-5-5.2q-0.3-0.3-0.3-0.7 0-0.4 0.3-0.7 0.3-0.3 0.8-0.3 0.4 0 0.7 0.3l5.7 5.9q0.1 0.1 0.2 0.3 0 0.2 0 0.4 0 0.2 0 0.3-0.1 0.2-0.2 0.4l-5.7 5.8q-0.1 0.1-0.2 0.1-0.1 0.1-0.2 0.1-0.1 0.1-0.2 0.1-0.1 0-0.2 0z"/> -->
	<!-- <path id="Layer" class="s2" d="m537.2 1.9h-10.7q-0.4 0-0.8 0.2-0.4 0.2-0.7 0.5-0.3 0.3-0.5 0.7-0.1 0.4-0.1 0.8v10.6q0 0.5 0.1 0.9 0.2 0.4 0.5 0.7 0.3 0.3 0.7 0.5 0.4 0.1 0.8 0.1h10.7q0.4 0 0.8-0.1 0.4-0.2 0.7-0.5 0.3-0.3 0.5-0.7 0.2-0.4 0.2-0.9v-10.6q0-0.4-0.2-0.8-0.2-0.4-0.5-0.7-0.3-0.3-0.7-0.5-0.4-0.2-0.8-0.2z"/> -->
	<!-- <path id="Layer" class="s2" d="m511.2 1.9h-10.7q-0.4 0-0.8 0.2-0.4 0.2-0.7 0.5-0.3 0.3-0.5 0.7-0.1 0.4-0.1 0.8v10.6q0 0.5 0.1 0.9 0.2 0.4 0.5 0.7 0.3 0.3 0.7 0.5 0.4 0.1 0.8 0.1h10.7q0.4 0 0.8-0.1 0.4-0.2 0.7-0.5 0.3-0.3 0.5-0.7 0.2-0.4 0.2-0.9v-10.6q0-0.4-0.2-0.8-0.2-0.4-0.5-0.7-0.3-0.3-0.7-0.5-0.4-0.2-0.8-0.2z"/> -->
	<!-- <path id="Layer" class="s2" d="m561.7 2.4h-10.7q-0.4 0-0.8 0.2-0.4 0.2-0.7 0.5-0.3 0.3-0.5 0.7-0.1 0.4-0.1 0.8v10.6q0 0.5 0.1 0.9 0.2 0.4 0.5 0.7 0.3 0.3 0.7 0.5 0.4 0.1 0.8 0.1h10.7q0.4 0 0.8-0.1 0.4-0.2 0.7-0.5 0.3-0.3 0.5-0.7 0.2-0.4 0.2-0.9v-10.6q0-0.4-0.2-0.8-0.2-0.4-0.5-0.7-0.3-0.3-0.7-0.5-0.4-0.2-0.8-0.2z"/> -->
	<!-- <path id="Layer" class="s2" d="m348.9 18h-69c-2.4 0-4.7-0.9-6.4-2.6-1.7-1.7-2.6-4-2.6-6.4 0-2.4 0.9-4.7 2.6-6.4 1.7-1.7 4-2.6 6.4-2.6h69c2.4 0 4.7 0.9 6.3 2.6 1.7 1.7 2.7 4 2.7 6.4 0 2.4-1 4.7-2.7 6.4-1.6 1.7-3.9 2.6-6.3 2.6z"/> -->
	<path id="Layer" class="s0" d="m235.3 317.4h-154c-0.9 0-1.8-0.4-2.4-1-0.6-0.6-0.9-1.4-0.9-2.3 0-0.9 0.3-1.7 0.9-2.4 0.6-0.6 1.5-0.9 2.4-0.9h154c0.8 0 1.7 0.3 2.3 0.9 0.6 0.7 1 1.5 1 2.4 0 0.9-0.4 1.7-1 2.3-0.6 0.6-1.5 1-2.3 1z"/>
	<path id="Layer" class="s0" d="m235.3 222.7h-232c-0.9 0-1.7-0.4-2.3-1-0.7-0.6-1-1.5-1-2.3 0-0.9 0.3-1.8 1-2.4 0.6-0.6 1.4-1 2.3-1h232c0.8 0 1.7 0.4 2.3 1 0.6 0.6 1 1.5 1 2.4 0 0.8-0.4 1.7-1 2.3-0.6 0.6-1.5 1-2.3 1z"/>
	<path id="Layer" class="s0" d="m235.3 246.4h-232c-0.9 0-1.7 0.3-2.3 1-0.7 0.6-1 1.4-1 2.3 0 0.9 0.3 1.7 1 2.4 0.6 0.6 1.4 0.9 2.3 0.9h232c0.9 0 1.7-0.3 2.3-0.9 0.6-0.7 1-1.5 1-2.4 0-0.9-0.4-1.7-1-2.3-0.6-0.7-1.4-1-2.3-1z"/>
	<path id="Layer" class="s0" d="m235.3 283.4h-232c-0.9 0-1.7-0.4-2.3-1-0.6-0.6-1-1.4-1-2.3 0-0.9 0.4-1.7 1-2.4 0.6-0.6 1.4-0.9 2.3-0.9h232c0.8 0 1.7 0.3 2.3 0.9 0.6 0.7 1 1.5 1 2.4 0 0.9-0.4 1.7-1 2.3-0.6 0.6-1.5 1-2.3 1z"/>
	<path id="Layer" class="s3" d="m430.6 548.7h-10.7l-5-41.1h15.7v41.1z"/>
	<path id="Layer" class="s4" d="m431 559.8h-32.8v-0.4c0-1.7 0.3-3.3 1-4.9 0.6-1.5 1.6-2.9 2.7-4.1 1.2-1.2 2.6-2.1 4.2-2.8 1.5-0.6 3.2-0.9 4.9-0.9l5.9-4.6 11.2 4.6h2.9z"/>
	<path id="Layer" class="s3" d="m537.7 548.7h-10.6l-5.1-41.1h15.7v41.1z"/>
	<path id="Layer" class="s4" d="m538.1 559.8h-32.7v-0.4c0-1.7 0.3-3.3 0.9-4.9 0.7-1.5 1.6-2.9 2.8-4.1 1.2-1.2 2.6-2.1 4.1-2.8 1.6-0.6 3.2-0.9 4.9-0.9l6-4.6 11.1 4.6h2.9z"/>
	<path id="Layer" class="s4" d="m439.3 312.7c0 0-7 7.5-7.3 12.3-0.3 4.8 3.3-3.9-0.3 4.8-3.7 8.7-3.7 2.9-3.7 8.7 0 5.9-7.7 11.6-7.7 11.6l-12.7 52.4 7.3 122.6h16.1c14.9-45.4 21.8-80.5 13.8-96.2l22.3-49.5c0 0 42.1 131.7 43.8 133.3 1.7 1.5 1.7-0.7 1.7 1.5 0 2.2-2.2 0 0 2.2l10.2 10.2 15.3-1.5c0 0 2-95.3-15-111.8 0 0 3.9-51 0-50.8-3.9 0.1-3.9 6.7-3.9 0.1 0-6.6 4.6-8.3 4.6-8.3l-13.1-46.1z"/>
	<path id="Layer" class="s2" d="m521.9 211.2l-14.8 62 3.5 23.1 4.2 27.7-14.5-1-22.5-1.4-41.7-2.7-3.7-122.5 19.2-20 3.4-9.7 27.6-0.2 6.7 11.7 17 4.8q0.8 0.6 1.6 1.1 0.8 0.6 1.6 1.2 0.7 0.6 1.5 1.2 0.7 0.6 1.4 1.3c4.2 3.9 7.9 8.8 9.7 13.9q0.2 0.5 0.3 1.1 0.2 0.5 0.3 1.1 0.1 0.6 0.2 1.2 0.1 0.6 0.2 1.1z"/>
	<path id="Layer" class="s2" d="m393.1 368.6c1.1-0.6 2.1-1.4 2.8-2.5 0.8-1 1.3-2.2 1.6-3.4 0.2-1.3 0.2-2.6-0.1-3.8-0.3-1.2-0.9-2.4-1.6-3.4l21.1-38.4-9.2-8.5-24.8 45.8c-1.6 1.5-2.6 3.5-2.8 5.6-0.2 2.1 0.4 4.3 1.6 6 1.3 1.8 3.1 3 5.2 3.5 2.1 0.5 4.3 0.2 6.2-0.9z"/>
	<path id="Layer" class="s2" d="m444.6 188.9l-4.9 88.2-23.7 55.4-15.5 20.4 1.8-9.3-10.7-5.3-1-0.5 20.5-79.2 1.8-30.8q0.3-4 1.3-7.8 1.1-3.8 2.9-7.4 1.8-3.5 4.3-6.6 2.5-3.1 5.6-5.6l11.8-9.6z"/>
	<path id="Layer" class="s3" d="m393.1 368.6c1.1-0.6 2.1-1.4 2.8-2.5 0.8-1 1.3-2.2 1.6-3.4 0.2-1.3 0.2-2.6-0.1-3.8-0.3-1.2-0.9-2.4-1.6-3.4l21.1-38.4-9.2-8.5-24.8 45.8c-1.6 1.5-2.6 3.5-2.8 5.6-0.2 2.1 0.4 4.3 1.6 6 1.3 1.8 3.1 3 5.2 3.5 2.1 0.5 4.3 0.2 6.2-0.9z"/>
	<path id="Layer" class="s2" d="m444.6 188.9l-4.9 88.2-23.7 55.4-15.5 20.4 1.8-9.3-10.7-5.3-1-0.5 20.5-79.2 1.8-30.8q0.3-4 1.3-7.8 1.1-3.8 2.9-7.4 1.8-3.5 4.3-6.6 2.5-3.1 5.6-5.6l11.8-9.6z"/>
	<path id="Layer" class="s1" d="m213.7 218.7c0-14.8 12-26.7 26.7-26.7h227c14.8 0 26.8 11.9 26.8 26.7v117.1c0 14.8-12 26.8-26.8 26.8h-227c-14.7 0-26.7-12-26.7-26.8z"/>
	<path id="Layer" fill-rule="evenodd" class="s5" d="m467.4 363.6h-227c-3.6 0-7.2-0.8-10.6-2.2-3.4-1.4-6.4-3.4-9-6-2.6-2.6-4.6-5.6-6-9-1.4-3.3-2.1-6.9-2.1-10.6v-117.1c0-3.6 0.7-7.2 2.1-10.6 1.4-3.4 3.4-6.4 6-9 2.6-2.6 5.6-4.6 9-6 3.4-1.4 7-2.1 10.6-2.1h227c3.7 0 7.3 0.7 10.6 2.1 3.4 1.4 6.5 3.4 9 6 2.6 2.6 4.6 5.6 6 9 1.4 3.4 2.2 7 2.2 10.6v117.1c0 3.7-0.8 7.3-2.2 10.6-1.4 3.4-3.4 6.4-6 9-2.5 2.6-5.6 4.6-9 6-3.3 1.4-6.9 2.2-10.6 2.2zm-227-170.6c-3.4 0-6.7 0.6-9.8 1.9-3.1 1.3-6 3.2-8.4 5.6-2.4 2.4-4.3 5.2-5.6 8.4-1.3 3.1-1.9 6.4-1.9 9.8v43.8c0 13 2.5 25.9 7.5 37.9 5 12 12.3 22.9 21.5 32.1 9.2 9.2 20.1 16.5 32.1 21.5 12.1 5 24.9 7.6 38 7.6h153.6c3.4 0 6.7-0.7 9.9-2 3.1-1.3 5.9-3.2 8.3-5.6 2.4-2.4 4.3-5.2 5.6-8.3 1.3-3.2 2-6.5 2-9.9v-117.1c0-3.4-0.7-6.7-2-9.8-1.3-3.2-3.2-6-5.6-8.4-2.4-2.4-5.2-4.3-8.3-5.6-3.2-1.3-6.5-1.9-9.9-1.9z"/>
	<path id="Layer" class="s6" d="m243.9 319.8c0-2 1.6-3.5 3.5-3.5h53c2 0 3.5 1.5 3.5 3.5 0 1.9-1.5 3.5-3.5 3.5h-53c-1.9 0-3.5-1.6-3.5-3.5z"/>
	<path id="Layer" class="s6" d="m419.9 310.3c0-2 1.6-3.5 3.5-3.5h37c2 0 3.5 1.5 3.5 3.5v19c0 1.9-1.5 3.5-3.5 3.5h-37c-1.9 0-3.5-1.6-3.5-3.5z"/>
	<path id="Layer" class="s6" d="m261.9 257.8c-9.9 0-18-8.1-18-18 0-10 8.1-18 18-18 10 0 18 8 18 18 0 9.9-8 18-18 18z"/>
	<path id="Layer" class="s3" d="m467.8 161.4c-12.5 0-22.6-10.1-22.6-22.6 0-12.5 10.1-22.6 22.6-22.6 12.5 0 22.6 10.1 22.6 22.6 0 12.5-10.1 22.6-22.6 22.6z"/>
	<path id="Layer" class="s4" d="m486.3 150.5c0.2 1.3-2.2 1.5-2.8 0.2-0.5-1.2 0.2-2.6 0.9-3.8l1.6-2.7q0.5-0.8 0.5-1.7 0.1-0.9-0.3-1.8-0.4-0.8-1.1-1.4-0.7-0.5-1.6-0.7c1.5-3.3-0.1-7.5-3-9.6-3-2.1-7.3 1.9-10.9 2.5-3.6 0.7-6.4-2-9.7-0.4l2-4.5-10.8 4.7 2.5-5.1c-2.8 0.2-3.9 3.5-4.5 6.2-0.5 2.8-2.1 6.4-5.2 5.8q-0.5-0.1-1-0.4-0.5-0.3-0.9-0.7-0.4-0.4-0.7-0.9-0.3-0.5-0.4-1c-2.4-9.2 4.6-19.4 13.8-21 1-2.7 2.8-5 5.2-6.6 2.4-1.6 5.3-2.4 8.2-2.3 2.9 0.1 5.7 1.2 7.9 3 2.2 1.9 3.9 4.4 4.6 7.2l3-3.7 0.6 5.2c2.2-0.2 4.2 1.3 5.3 3.2 1 1.9 0.5 4.4 1.5 6.3 4.6 8.7 3.1 18.5-3.9 25.1"/>
	<path id="Layer" class="s0" d="m565.6 544.7c0.5 0 0.9-0.1 1.3-0.4 0.4-0.2 0.7-0.6 0.9-1 0.2-0.4 0.2-0.9 0.1-1.4-0.1-0.4-0.3-0.8-0.6-1.1l-0.2-0.7q0 0 0.1-0.1c0.4-1.1 1.2-2.1 2.2-2.7 1-0.7 2.2-1 3.4-1 1.2 0 2.4 0.3 3.4 1 1 0.7 1.7 1.6 2.2 2.7 1.8 4.5 4.2 8.9 4.8 13.6q0.1 0.8 0.1 1.5 0 0.8 0 1.6-0.1 0.8-0.2 1.6-0.1 0.7-0.3 1.5 1.7-3.5 2.9-7.2 1.2-3.7 2-7.5 0.9-3.8 1.3-7.6 0.4-3.9 0.4-7.7 0-1 0-2 0-1-0.1-1.9 0-1-0.1-2-0.1-0.9-0.2-1.9-0.4-3.2-1-6.3-0.9-4.3-2.2-8.4-1.4-4.1-3.2-8-1.9-3.9-4.1-7.6-2.3-3.6-5-7-1.3-0.7-2.5-1.6-1.2-0.9-2.2-2-1-1.1-1.9-2.3-0.8-1.2-1.5-2.5-0.2-0.5-0.5-1-0.2-0.5-0.3-1-0.2-0.5-0.3-1-0.2-0.5-0.3-1.1c0.4 0.1 1.5-5.9 1.2-6.3 0.6-0.8 1.6-1.2 2.2-2 2.9-4.1 7.1-3.4 9.2 2.1 4.6 2.3 4.6 6.2 1.8 9.8-1.8 2.4-2 5.6-3.6 8.1q0.3 0.3 0.5 0.6 1.1 1.4 2.1 2.9 1.1 1.5 2 3 1 1.5 1.9 3.1 0.9 1.6 1.7 3.2-0.2-1.8-0.2-3.6 0-1.9 0.3-3.6 0.2-1.8 0.6-3.6 0.5-1.8 1.1-3.4c1.8-4.3 5-7.8 7.9-11.5 0.8-0.9 1.8-1.7 3-2.1 1.2-0.4 2.4-0.4 3.6-0.1 1.2 0.4 2.3 1.1 3.1 2 0.8 0.9 1.4 2.1 1.5 3.3q0 0.1 0 0.2-0.6 0.3-1.2 0.8c-0.6 0.3-1 0.8-1.2 1.4-0.2 0.5-0.3 1.2-0.1 1.8 0.1 0.6 0.4 1.1 0.9 1.6 0.4 0.4 1 0.7 1.6 0.8h0.1q-0.1 0.5-0.2 1.1 0 0.6-0.1 1.2-0.1 0.5-0.3 1.1-0.1 0.6-0.2 1.1c3.7 14.4-4.3 19.6-15.7 19.8q-0.4 0.2-0.8 0.4 0.8 2.3 1.5 4.6 0.6 2.4 1.2 4.8 0.5 2.4 0.8 4.8 0.4 2.4 0.6 4.8 0.1 1.5 0.1 2.9 0.1 1.4 0.1 2.9 0 1.4-0.1 2.8-0.1 1.5-0.2 2.9v-0.1q0.3-1.6 0.9-3.1 0.6-1.5 1.4-2.9 0.8-1.4 1.9-2.6 1-1.3 2.2-2.3c5-4 12-5.5 17.3-8.8 0.6-0.4 1.2-0.6 1.9-0.6 0.7 0 1.4 0.2 1.9 0.6 0.6 0.3 1 0.9 1.3 1.5 0.3 0.6 0.4 1.3 0.3 1.9v0.2q-0.3 0.1-0.6 0.2-0.3 0.2-0.6 0.3-0.3 0.1-0.5 0.3-0.3 0.1-0.6 0.3-0.7 0.4-1.3 0.8c-0.5 0.3-0.9 0.8-1.1 1.4-0.2 0.5-0.3 1.2-0.2 1.8 0.2 0.6 0.5 1.1 0.9 1.6 0.5 0.4 1.1 0.7 1.7 0.8q0.1 0 0.2 0-0.5 1.2-1.2 2.4-0.6 1.1-1.3 2.2-0.7 1.2-1.5 2.2-0.8 1-1.7 2c-2.3 12.5-12.2 13.7-22.9 10.1q-0.4 1.9-0.9 3.7-0.6 1.9-1.2 3.8-0.6 1.8-1.4 3.6-0.7 1.8-1.5 3.6h-18q-0.1-0.3-0.2-0.6 0.6 0 1.2 0 0.7 0 1.3 0 0.6-0.1 1.2-0.1 0.7-0.1 1.3-0.2-2-2.5-4-5-0.1 0-0.1 0 0 0 0 0 0 0 0 0 0 0 0 0-1-1.3-2.1-2.6 0-0.9 0.1-1.9 0-1 0.1-1.9 0.1-1 0.3-1.9 0.2-1 0.4-1.9z"/>
	<path id="Layer" class="s7" d="m287.1 560.8q0 0.3 0 0.5 0.1 0.2 0.3 0.4 0.2 0.2 0.4 0.2 0.2 0.1 0.4 0.1h330.3c0.4 0 0.7-0.1 0.9-0.3 0.2-0.2 0.3-0.5 0.3-0.9 0-0.3-0.1-0.6-0.3-0.8-0.2-0.2-0.5-0.3-0.9-0.3h-330.3q-0.2 0-0.4 0-0.2 0.1-0.4 0.3-0.2 0.2-0.3 0.4 0 0.2 0 0.4z"/>
	<path id="Layer" class="s3" d="m477.4 363.3c1.1-0.7 2.1-1.6 2.8-2.6 0.7-1.1 1.2-2.3 1.4-3.5 0.2-1.3 0.1-2.6-0.2-3.8-0.4-1.2-1-2.4-1.8-3.3l19.7-39.2-9.4-8.1-23.1 46.7c-1.6 1.5-2.5 3.5-2.6 5.6-0.2 2.2 0.4 4.3 1.8 6 1.3 1.7 3.2 2.9 5.3 3.3 2.1 0.4 4.3 0 6.1-1.1z"/>
	<path id="Layer" class="s2" d="m522.1 201.7l1 4.5-2.4 63.9-10.1 26.2-10.3 26.7-1.3 3.3-14.7 21 1.4-9.3-10.8-5-1-0.4 3.9-11 9-25.4 3.8-10.9 0.9-32.6 0.8-30.9q0.1-3.9 1-7.8 0.9-3.9 2.6-7.5 1.7-3.6 4.1-6.8 2.4-3.1 5.4-5.8l7-6.1c4.2 3.9 7.9 8.8 9.7 13.9z"/>
	<path id="Layer" class="s6" d="m286.1 361.2l-46.9-1c-2.9 0-5.8-0.5-8.4-1.6-2.7-1.1-5.1-2.8-7.1-4.8-2.1-2-3.7-4.5-4.8-7.1-1.1-2.7-1.7-5.6-1.7-8.5l-2-49c5.8 40 27.9 65.3 70.9 72z"/>
</svg>