<svg version="1.2" xmlns="http://www.w3.org/2000/svg" viewBox="0 0 705 561" width="705" height="361">
	<title>undraw_gone_shopping_re_2lau-svg</title>
	<style>
		.s0 { fill: #f2f2f2 } 
		.s1 { fill: #e6e6e6 } 
		.s2 { fill: #a0616a } 
		.s3 { fill: #00bbf9 } 
		.s4 { fill: #2f2e41 } 
		.s5 { fill: #cacaca } 
		.s6 { fill: #ffffff } 
		.s7 { fill: #cccccc } 
		.s8 { fill: #3f3d56 } 
	</style>
	<path id="Layer" class="s0" d="m159.7 191.7h5v55h-5z"/>
	<path id="Layer" class="s1" d="m270.4 560h-197l0.3-22.9v-2l1.7-179.1h194l0.3 51.7v2l0.7 150.3z"/>
	<path id="Layer" class="s2" d="m508.4 170.5l31.8-54.1c0.7-1.1 1.1-2.4 1.3-3.7 0.2-1.3 0.1-2.6-0.2-3.9-0.3-1.2-0.9-2.4-1.6-3.5-0.8-1.1-1.8-2-2.9-2.6-1.2-0.8-2.5-1.2-3.9-1.4-1.3-0.2-2.7-0.1-4.1 0.2-1.3 0.4-2.5 1-3.6 1.9-1.1 0.8-2 1.9-2.6 3.1l-31.4 57.2-20.5 33.9c-3.7-0.5-7.3 1.3-9.1 4.5-1.8 3.3-1.3 7.3 1.2 10.1 2.5 2.8 6.4 3.7 9.9 2.3 3.4-1.3 5.6-4.7 5.5-8.5z"/>
	<path id="Layer" class="s3" d="m538.7 130.4q0.5-0.1 0.9-0.4 0.4-0.3 0.7-0.6 0.3-0.4 0.5-0.9 0.2-0.4 0.2-0.9 0-0.3 0.1-0.6 0.1-0.3 0.2-0.6 0.1-0.3 0.2-0.5 0.2-0.3 0.4-0.5 0-0.1 0-0.1 0.1-0.1 0.1-0.1 0.1-0.1 0.1-0.1 0 0 0.1-0.1 0.5-0.4 0.9-1 0.4-0.6 0.7-1.3 0.2-0.6 0.3-1.3 0.1-0.7 0-1.4c-0.4-3.1 0.7-6.7 2-9.6 1.5-3.2 3.2-6.4 3.9-9.9 1-5-0.5-10.9-6.7-12.4q-1-0.2-2-0.3-1 0-2 0.1-1 0.1-2 0.4-0.9 0.3-1.8 0.7c-5.1 2.5-8.2 7.4-11.2 12.1 0 0-7 7.3-11.8 10.8 1.2 0.5 1.1 2.5 0 3.4-1 0.9-2.5 1-3.9 1.2-1.7 0.3-3.6 1-3.5 3.1q0 0.4 0.1 0.8 0.1 0.4 0.3 0.7 0.2 0.3 0.4 0.6 0.3 0.3 0.6 0.6 2.8 2.2 5.7 4.2 3 2 6.2 3.7 3.2 1.7 6.5 3 3.3 1.3 6.8 2.3c2 0.6 4.3 1.1 6.2 0.1 1.9-1 2.6-4.1 0.8-5.2z"/>
	<path id="Layer" class="s2" d="m587.3 224.2l-65-1-2-15 6-34h51l10 50z"/>
	<path id="Layer" class="s2" d="m500.1 539h-11.1l-5.2-42.6h16.3v42.6z"/>
	<path id="Layer" class="s4" d="m505.9 558.1h-7.9l-1.4-7.5-3.7 7.5h-20.9c-1.1 0-2-0.3-2.8-0.9-0.9-0.6-1.5-1.5-1.8-2.4-0.3-1-0.2-2 0.1-3 0.3-0.9 0.9-1.7 1.8-2.3l16.7-11.6v-7.5l17.7 1z"/>
	<path id="Layer" class="s2" d="m649.3 503.1l-9 6.4-28.7-32 13.4-9.3 24.3 34.9z"/>
	<path id="Layer" class="s4" d="m665.1 515.5l-6.5 4.5-5.5-5.3 1.3 8.2-17.2 12c-0.8 0.6-1.8 0.9-2.8 0.9-1-0.1-2-0.4-2.8-1-0.8-0.6-1.3-1.5-1.6-2.5-0.3-0.9-0.2-2 0.1-2.9l7.1-19.1-4.3-6.2 15.1-9.2z"/>
	<path id="Layer" class="s5" d="m703.5 560.6l-702.3 0.4c-0.3 0-0.6-0.2-0.9-0.4-0.2-0.2-0.3-0.5-0.3-0.8 0-0.3 0.1-0.7 0.3-0.9 0.3-0.2 0.6-0.3 0.9-0.3l702.3-0.3c0.4 0 0.7 0.1 0.9 0.3 0.2 0.2 0.3 0.5 0.3 0.9 0 0.3-0.1 0.6-0.3 0.8-0.2 0.2-0.5 0.3-0.9 0.3z"/>
	<path id="Layer" class="s1" d="m62.9 335.4h215.5v23.8h-215.5z"/>
	<path id="Layer" class="s1" d="m204.8 306.7l-0.7-2.5h0.2c0.4 0 0.8-0.2 1.2-0.5 0.3-0.3 0.5-0.8 0.5-1.2 0-0.5-0.2-0.9-0.5-1.2-0.4-0.3-0.8-0.5-1.2-0.5q-2.9-0.7-5.9-1.1-2.9-0.3-5.9-0.3-2.9 0-5.9 0.3-2.9 0.4-5.8 1.1c-0.5 0-0.9 0.2-1.2 0.5-0.3 0.3-0.5 0.7-0.5 1.2 0 0.4 0.2 0.9 0.5 1.2 0.3 0.3 0.7 0.5 1.2 0.5l-0.7 2.5c-5.4 7.5-2.8 20 0 32.5h24.7c3.1-13.7 5.5-26.6 0-32.5z"/>
	<path id="Layer" class="s6" d="m192.5 326.8c-3.7 0-6.8-3-6.8-6.8 0-3.8 3.1-6.9 6.8-6.9 3.8 0 6.9 3.1 6.9 6.9 0 3.8-3.1 6.8-6.9 6.8z"/>
	<path id="Layer" class="s1" d="m223.5 270.2l-0.7-2.5h0.1c0.5 0 0.9-0.2 1.2-0.5 0.4-0.4 0.5-0.8 0.5-1.2 0-0.5-0.1-0.9-0.5-1.3-0.3-0.3-0.7-0.5-1.2-0.5q-2.9-0.6-5.8-1-2.9-0.3-5.9-0.3-3 0-5.9 0.3-3 0.4-5.8 1c-0.5 0-0.9 0.2-1.2 0.5-0.4 0.4-0.5 0.8-0.5 1.2 0 0.5 0.1 0.9 0.4 1.2 0.4 0.4 0.8 0.6 1.2 0.6l-0.7 2.5c-5.3 7.5-2.7 19.9 0 32.4h24.8c3.1-13.6 5.5-26.5 0-32.4z"/>
	<path id="Layer" class="s6" d="m211.2 290.3c-3.8 0-6.8-3.1-6.8-6.9 0-3.7 3-6.8 6.8-6.8 3.8 0 6.8 3.1 6.8 6.8 0 3.8-3 6.9-6.8 6.9z"/>
	<path id="Layer" class="s1" d="m187.5 270.2l-0.7-2.5h0.1c0.5 0 0.9-0.2 1.2-0.5 0.4-0.4 0.5-0.8 0.5-1.2 0-0.5-0.1-0.9-0.5-1.3-0.3-0.3-0.7-0.5-1.2-0.5q-2.9-0.6-5.8-1-2.9-0.3-5.9-0.3-3 0-5.9 0.3-3 0.4-5.8 1c-0.5 0-0.9 0.2-1.2 0.5-0.4 0.4-0.5 0.8-0.5 1.2 0 0.5 0.1 0.9 0.4 1.2 0.4 0.4 0.8 0.6 1.2 0.6l-0.7 2.5c-5.3 7.5-2.7 19.9 0 32.4h24.8c3.1-13.6 5.5-26.5 0-32.4z"/>
	<path id="Layer" class="s6" d="m175.2 290.3c-3.8 0-6.8-3.1-6.8-6.9 0-3.7 3-6.8 6.8-6.8 3.8 0 6.8 3.1 6.8 6.8 0 3.8-3 6.9-6.8 6.9z"/>
	<path id="Layer" class="s1" d="m171.5 235.2l-0.7-2.5h0.1c0.5 0 0.9-0.2 1.2-0.5 0.4-0.4 0.5-0.8 0.5-1.2 0-0.5-0.1-0.9-0.5-1.3-0.3-0.3-0.7-0.5-1.2-0.5q-2.9-0.6-5.8-1-2.9-0.3-5.9-0.3-3 0-5.9 0.3-3 0.4-5.8 1c-0.5 0-0.9 0.2-1.2 0.5-0.4 0.4-0.5 0.8-0.5 1.2 0 0.5 0.1 0.9 0.4 1.2 0.4 0.4 0.8 0.6 1.2 0.6l-0.7 2.5c-5.3 7.5-2.7 19.9 0 32.4h24.8c3.1-13.6 5.5-26.5 0-32.4z"/>
	<path id="Layer" class="s6" d="m159.2 255.3c-3.8 0-6.8-3.1-6.8-6.9 0-3.7 3-6.8 6.8-6.8 3.8 0 6.8 3.1 6.8 6.8 0 3.8-3 6.9-6.8 6.9z"/>
	<path id="Layer" class="s1" d="m207.5 235.2l-0.7-2.5h0.1c0.5 0 0.9-0.2 1.2-0.5 0.4-0.4 0.5-0.8 0.5-1.2 0-0.5-0.1-0.9-0.5-1.3-0.3-0.3-0.7-0.5-1.2-0.5q-2.9-0.6-5.8-1-2.9-0.3-5.9-0.3-3 0-5.9 0.3-3 0.4-5.8 1c-0.5 0-0.9 0.2-1.2 0.5-0.4 0.4-0.5 0.8-0.5 1.2 0 0.5 0.1 0.9 0.4 1.2 0.4 0.4 0.8 0.6 1.2 0.6l-0.7 2.5c-5.3 7.5-2.7 19.9 0 32.4h24.8c3.1-13.6 5.5-26.5 0-32.4z"/>
	<path id="Layer" class="s6" d="m195.2 255.3c-3.8 0-6.8-3.1-6.8-6.9 0-3.7 3-6.8 6.8-6.8 3.8 0 6.8 3.1 6.8 6.8 0 3.8-3 6.9-6.8 6.9z"/>
	<path id="Layer" class="s1" d="m150.5 270.2l-0.7-2.5h0.1c0.5 0 0.9-0.2 1.2-0.5 0.4-0.4 0.5-0.8 0.5-1.2 0-0.5-0.1-0.9-0.5-1.3-0.3-0.3-0.7-0.5-1.2-0.5q-2.9-0.6-5.8-1-2.9-0.3-5.9-0.3-3 0-5.9 0.3-3 0.4-5.8 1c-0.5 0-0.9 0.2-1.2 0.5-0.4 0.4-0.5 0.8-0.5 1.2 0 0.5 0.1 0.9 0.4 1.2 0.4 0.4 0.8 0.6 1.2 0.6l-0.7 2.5c-5.3 7.5-2.7 19.9 0 32.4h24.8c3.1-13.6 5.5-26.5 0-32.4z"/>
	<path id="Layer" class="s6" d="m138.2 290.3c-3.8 0-6.8-3.1-6.8-6.9 0-3.7 3-6.8 6.8-6.8 3.8 0 6.8 3.1 6.8 6.8 0 3.8-3 6.9-6.8 6.9z"/>
	<path id="Layer" class="s7" d="m479.5 171.2l-0.7-2.5h0.1c0.5 0 0.9-0.2 1.2-0.5 0.4-0.4 0.5-0.8 0.5-1.2 0-0.5-0.1-0.9-0.5-1.3-0.3-0.3-0.7-0.5-1.2-0.5q-2.9-0.6-5.8-1-2.9-0.3-5.9-0.3-3 0-5.9 0.3-3 0.4-5.8 1c-0.5 0-0.9 0.2-1.2 0.5-0.4 0.4-0.5 0.8-0.5 1.2 0 0.5 0.1 0.9 0.4 1.2 0.4 0.4 0.8 0.6 1.2 0.6l-0.7 2.5c-5.3 7.5-2.7 19.9 0 32.4h24.8c3.1-13.6 5.5-26.5 0-32.4z"/>
	<path id="Layer" class="s6" d="m467.2 191.3c-3.8 0-6.8-3.1-6.8-6.9 0-3.7 3-6.8 6.8-6.8 3.8 0 6.8 3.1 6.8 6.8 0 3.8-3 6.9-6.8 6.9z"/>
	<path id="Layer" class="s1" d="m131 306.7l-0.8-2.5h0.2c0.4 0 0.9-0.2 1.2-0.5 0.3-0.3 0.5-0.8 0.5-1.2 0-0.5-0.2-0.9-0.5-1.2-0.3-0.3-0.8-0.5-1.2-0.5q-2.9-0.7-5.8-1.1-3-0.3-5.9-0.3-3 0-6 0.3-2.9 0.4-5.8 1.1c-0.4 0-0.9 0.2-1.2 0.5-0.3 0.3-0.5 0.7-0.5 1.2 0 0.4 0.2 0.9 0.5 1.2 0.3 0.3 0.7 0.5 1.2 0.5l-0.7 2.5c-5.4 7.5-2.7 20 0 32.5h24.8c3.1-13.7 5.4-26.6 0-32.5z"/>
	<path id="Layer" class="s6" d="m118.7 326.8c-3.8 0-6.9-3-6.9-6.8 0-3.8 3.1-6.9 6.9-6.9 3.7 0 6.8 3.1 6.8 6.9 0 3.8-3.1 6.8-6.8 6.8z"/>
	<path id="Layer" class="s1" d="m168 306.7l-0.8-2.5h0.2c0.4 0 0.9-0.2 1.2-0.5 0.3-0.3 0.5-0.8 0.5-1.2 0-0.5-0.2-0.9-0.5-1.2-0.3-0.3-0.8-0.5-1.2-0.5q-2.9-0.7-5.8-1.1-3-0.3-5.9-0.3-3 0-6 0.3-2.9 0.4-5.8 1.1c-0.4 0-0.9 0.2-1.2 0.5-0.3 0.3-0.5 0.7-0.5 1.2 0 0.4 0.2 0.9 0.5 1.2 0.3 0.3 0.7 0.5 1.2 0.5l-0.7 2.5c-5.4 7.5-2.7 20 0 32.5h24.8c3.1-13.7 5.4-26.6 0-32.5z"/>
	<path id="Layer" class="s6" d="m155.7 326.8c-3.8 0-6.9-3-6.9-6.8 0-3.8 3.1-6.9 6.9-6.9 3.7 0 6.8 3.1 6.8 6.9 0 3.8-3.1 6.8-6.8 6.8z"/>
	<path id="Layer" class="s1" d="m243.8 306.7l-0.7-2.5h0.1c0.5 0 0.9-0.2 1.2-0.5 0.4-0.3 0.5-0.8 0.5-1.2 0-0.5-0.1-0.9-0.5-1.2-0.3-0.3-0.7-0.5-1.2-0.5q-2.9-0.7-5.8-1.1-2.9-0.3-5.9-0.3-3 0-5.9 0.3-3 0.4-5.8 1.1c-0.5 0-0.9 0.2-1.2 0.5-0.4 0.3-0.5 0.7-0.5 1.2-0.1 0.4 0.1 0.9 0.4 1.2 0.4 0.3 0.8 0.5 1.2 0.5l-0.7 2.5c-5.3 7.5-2.7 20 0 32.5h24.8c3.1-13.7 5.5-26.6 0-32.5z"/>
	<path id="Layer" class="s6" d="m231.5 326.8c-3.8 0-6.8-3-6.8-6.8 0-3.8 3-6.9 6.8-6.9 3.8 0 6.8 3.1 6.8 6.9 0 3.8-3 6.8-6.8 6.8z"/>
	<path id="Layer" class="s4" d="m586.1 210.8l-67.9-4.6c0 0-15.7 36.3-15.5 41.1 0.3 4.9 6.8 3.4 0 10.6-6.7 7.3-6.7-2.7-6.7 7.3 0 10-27.3 232-15.3 234 21 3 20-1 20-1l33-103.3c0 0 59.5 87 78 82.3 18.6-4.8 15-11 15-11l-39.7-80.7c0 0-6 0-5.1-6.7 0.8-6.6-4.2-5.5-4.2-5.5 0 0-7.6-2.4-4.8-6.3 2.8-3.8-4.7-6.1-4.7-6.1l21.9-83.8c0 0 15.6-36.2-4-66.3z"/>
	<path id="Layer" class="s3" d="m580.1 72.2l-23.4 1.2-7.8 13.1c0 0-22.2 1.7-22.2 19.7 0 18-15.2 10.1-8.1 33 7.1 23 8.7 27.4 2.4 30.7-6.3 3.3-15.2 2.5-7.2 7.9 7.9 5.4 10.9 7.4 8.9 9.4-2 2 37.1-13.8 59.5-3.9 0 0 6.3-4.8 4.9-9-1.4-4.1-2.2-2.5 0.2-6.3 2.4-3.8 27.7-70.1 27.7-70.1 0 0-5.1-9.6-16.2-9.2-11.1 0.5-18.7-16.5-18.7-16.5z"/>
	<path id="Layer" fill-rule="evenodd" class="s8" d="m662.1 294.7l-41.3 22.5-31.8-58.5c-2.9-5.5-3.6-11.9-1.8-17.9 1.7-6 5.8-11 11.3-14 5.5-2.9 11.9-3.6 17.9-1.8 6 1.7 11 5.8 14 11.3zm-40.6 19.7l37.8-20.5-30.7-56.7c-2.7-5-7.3-8.7-12.8-10.4-5.5-1.6-11.4-1-16.4 1.7-5 2.8-8.7 7.4-10.3 12.8-1.7 5.5-1 11.4 1.7 16.4z"/>
	<path id="Layer" class="s3" d="m697.4 336.5l-60.9 33q-1.1 0.6-2.3 0.8-1.3 0.2-2.5 0.1-1.2-0.2-2.4-0.7-1.1-0.6-2-1.5l-41.1-39.4c-0.9-0.9-1.6-1.9-2-3.1-0.4-1.2-0.5-2.4-0.3-3.6 0.1-1.3 0.6-2.4 1.3-3.4 0.7-1.1 1.6-1.9 2.7-2.5l91.3-49.5c1.1-0.6 2.3-0.9 3.5-1 1.3 0 2.5 0.3 3.6 0.8 1.1 0.5 2.1 1.3 2.9 2.3 0.7 1 1.2 2.1 1.5 3.3l10.6 56q0.3 1.2 0.1 2.4-0.1 1.3-0.7 2.4-0.5 1.1-1.4 2.1-0.8 0.9-1.9 1.5z"/>
	<path id="Layer" class="s8" d="m627.6 295.2l6.2-3.3 5.7 10.5-6.1 3.4z"/>
	<path id="Layer" class="s2" d="m617.9 177.4l-1.8-62.7c-0.1-1.3-0.4-2.6-0.9-3.8-0.5-1.2-1.3-2.3-2.2-3.2-1-0.9-2.1-1.6-3.3-2.1-1.3-0.5-2.6-0.7-3.9-0.7-1.4 0-2.7 0.3-4 0.9-1.2 0.6-2.4 1.4-3.3 2.4-0.9 1-1.6 2.2-2.1 3.5-0.5 1.3-0.6 2.7-0.5 4l3.8 65.1 0.7 39.7c-3.4 1.5-5.5 5-5.3 8.7 0.3 3.7 2.8 6.8 6.4 7.9 3.6 1 7.4-0.3 9.6-3.3 2.2-3.1 2.3-7.1 0.2-10.2z"/>
	<path id="Layer" class="s3" d="m622.2 127.3q0.4-0.3 0.6-0.7 0.2-0.5 0.2-1 0.1-0.5 0-0.9-0.1-0.5-0.3-0.9-0.2-0.3-0.3-0.6-0.1-0.3-0.1-0.6-0.1-0.3-0.1-0.6 0-0.3 0-0.6 0 0 0-0.1 0 0 0-0.1 0.1-0.1 0.1-0.1 0-0.1 0-0.1 0.2-0.7 0.2-1.4 0-0.7-0.1-1.4-0.1-0.7-0.4-1.3-0.3-0.7-0.8-1.2c-2-2.4-2.9-6-3.3-9.2-0.5-3.5-0.7-7.1-2-10.4-1.9-4.8-6.3-9-12.3-7q-1 0.3-1.8 0.8-0.9 0.5-1.7 1.2-0.8 0.6-1.4 1.4-0.7 0.7-1.2 1.6c-3 4.8-3.1 10.6-3 16.1l-1.1-2.2q0 2.3-0.2 4.5-0.1 2.3-0.5 4.5-0.4 2.2-1.1 4.4-0.6 2.2-1.4 4.3c1.3-0.3 2.2 1.5 1.8 2.8-0.4 1.3-1.6 2.2-2.6 3.1-1.3 1.1-2.6 2.8-1.4 4.6q0.3 0.3 0.6 0.5 0.2 0.3 0.6 0.5 0.3 0.2 0.7 0.3 0.3 0.1 0.7 0.1 3.6 0.5 7.2 0.6 3.5 0.1 7.1-0.2 3.6-0.3 7.1-0.9 3.6-0.7 7-1.7c2-0.6 4.2-1.4 5.3-3.2 1.1-1.9 0-4.9-2.1-4.9z"/>
	<path id="Layer" class="s4" d="m602.5 40.6c-1.3 5 0.2 12.8 0.8 17.4 0.6 4.9-8 9.4-12.9 9.7q0.1-0.7 0-1.3-0.1-0.6-0.2-1.2-0.2-0.5-0.5-1.1-0.2-0.5-0.6-1 0 0.5 0 1.1-0.1 0.6-0.2 1.2-0.1 0.6-0.3 1.2-0.2 0.5-0.4 1.1h-41c-5.2-9.7-9.6-23-4.8-36.7q0.2-2.1 0.9-4 0.8-2 2.1-3.6 1.3-1.6 3-2.8 1.7-1.2 3.7-1.8l22.3-7.1c8.8 0 19.6 1.2 24.5 7.8q1.6 2.2 2.7 4.8 1.1 2.6 1.5 5.3 0.5 2.8 0.3 5.5-0.1 2.8-0.9 5.5z"/>
	<path id="Layer" class="s2" d="m565.2 66.7c-12.7 0-23-10.3-23-23 0-12.8 10.3-23 23-23 12.7 0 23 10.2 23 23 0 12.7-10.3 23-23 23z"/>
	<path id="Layer" class="s4" d="m594.2 37.7v5h-19.9q0.1-0.8 0.1-1.5 0-0.7-0.1-1.5-0.2-0.7-0.4-1.4-0.3-0.6-0.8-1.2 0 0.7-0.1 1.4-0.1 0.7-0.2 1.4-0.2 0.8-0.5 1.4-0.3 0.7-0.6 1.4c-11.5 3.4-21.2 3.3-29.1 0q-0.9 0-1.7-0.4-0.8-0.3-1.4-0.9-0.6-0.7-1-1.5-0.3-0.8-0.3-1.7c0-15.3 12.1-28.2 27.4-28.5 3.7-0.1 7.4 0.6 10.9 1.9 3.5 1.4 6.6 3.4 9.3 6.1 2.6 2.6 4.8 5.7 6.2 9.1 1.5 3.4 2.2 7.1 2.2 10.9z"/>
	<path id="Layer" class="s4" d="m590.3 3.8c-2.4-1.1-5.1-1.6-6.9-3.8l0.7 3.7q-1.5-0.7-3-1.2-1.6-0.5-3.2-0.7-1.6-0.2-3.2-0.1-1.6 0.1-3.2 0.5-0.4 0.1-0.9 0.2-0.4 0.2-0.9 0.4-0.4 0.2-0.8 0.5-0.4 0.3-0.7 0.6-0.4 0.4-0.7 0.9-0.2 0.4-0.4 1-0.2 0.5-0.2 1.1-0.1 0.5 0 1.1 0.1 0.4 0.3 0.9 0.1 0.4 0.4 0.8 0.3 0.4 0.6 0.8 0.4 0.3 0.8 0.6 0.3 0.2 0.7 0.4 0.4 0.1 0.8 0.3 0.4 0.1 0.8 0.2 0.4 0.1 0.8 0.2 7 1.4 13.9 2.8 0.7 0.2 1.3 0.3 0.7 0.1 1.4 0.1 0.6 0 1.3 0 0.7-0.1 1.3-0.2 0.8-0.3 1.4-0.7 0.6-0.5 1.1-1.1 0.4-0.6 0.7-1.3 0.3-0.7 0.4-1.5c0.2-3.1-2.3-5.7-4.6-6.8z"/>
	<path id="Layer" class="s0" d="m215.1 178.7l-109.6 35.3q-0.7 0.3-1.5 0.2-0.8 0-1.4-0.4-0.7-0.4-1.2-0.9-0.5-0.6-0.8-1.4l-13.8-42.9q-0.3-0.8-0.2-1.5 0.1-0.8 0.4-1.5 0.4-0.7 0.9-1.2 0.6-0.5 1.4-0.7l109.6-35.4q0.7-0.2 1.5-0.1 0.8 0 1.4 0.4 0.7 0.3 1.2 0.9 0.5 0.6 0.8 1.3l13.8 43q0.3 0.7 0.2 1.5-0.1 0.8-0.4 1.4-0.4 0.7-0.9 1.2-0.6 0.5-1.4 0.8z"/>
	<path id="Layer" class="s6" d="m188.8 184.6l-66.6 21.5c-2.5 0.8-5.1 1.1-7.7 0.9-2.5-0.3-5.1-1-7.4-2.1-2.3-1.2-4.3-2.8-6-4.8-1.7-2-2.9-4.3-3.7-6.7l-2.7-8.2c-0.8-2.4-1.1-5-0.8-7.6 0.2-2.6 0.9-5.1 2.1-7.4 1.1-2.3 2.8-4.3 4.7-6 2-1.7 4.3-3 6.7-3.8l74.9-24.1c2.4-0.8 5-1.1 7.6-0.9 2.6 0.2 5.1 0.9 7.4 2.1 2.3 1.2 4.3 2.8 6 4.8 1.7 1.9 2.9 4.2 3.7 6.7 1.2 3.5 1.6 7.2 1.3 10.9-0.3 3.7-1.3 7.3-3 10.6-1.7 3.3-4 6.3-6.9 8.7-2.8 2.4-6.1 4.2-9.6 5.4z"/>
	<path id="Layer" class="s1" d="m160.9 156.8l-44.1 14.2q-0.4 0.1-0.8-0.1-0.3-0.2-0.5-0.5-0.1-0.4 0.1-0.8 0.2-0.4 0.6-0.5l44-14.2q0.4-0.1 0.8 0 0.4 0.2 0.5 0.6 0.1 0.4-0.1 0.8-0.2 0.3-0.5 0.5z"/>
	<path id="Layer" class="s1" d="m186.4 159.7l-66.3 21.4q-0.4 0.2-0.8 0-0.4-0.2-0.5-0.6-0.1-0.4 0.1-0.8 0.2-0.3 0.6-0.5l66.3-21.4q0.4-0.1 0.8 0.1 0.3 0.2 0.5 0.6 0.1 0.4-0.1 0.7-0.2 0.4-0.6 0.5z"/>
	<path id="Layer" class="s1" d="m189.7 169.9l-66.4 21.4q-0.4 0.1-0.7-0.1-0.4-0.2-0.5-0.6-0.1-0.4 0-0.7 0.2-0.4 0.6-0.5l66.4-21.4q0.4-0.2 0.8 0 0.3 0.2 0.5 0.6 0.1 0.4-0.1 0.8-0.2 0.3-0.6 0.5z"/>
	<path id="Layer" class="s1" d="m189.7 169.9l-66.4 21.4q-0.4 0.1-0.7-0.1-0.4-0.2-0.5-0.6-0.1-0.4 0-0.7 0.2-0.4 0.6-0.5l66.4-21.4q0.4-0.2 0.8 0 0.3 0.2 0.5 0.6 0.1 0.4-0.1 0.8-0.2 0.3-0.6 0.5z"/>
	<path id="Layer" class="s3" d="m195.2 146.4c-6.4 0-11.6-5.1-11.6-11.5 0-6.4 5.2-11.6 11.6-11.6 6.3 0 11.5 5.2 11.5 11.6 0 6.4-5.2 11.5-11.5 11.5z"/>
	<path id="Layer" class="s6" d="m194.7 139.5q-0.1 0-0.2 0-0.1-0.1-0.2-0.1-0.1-0.1-0.2-0.1-0.1-0.1-0.2-0.2l-2.4-3.3q-0.2-0.3-0.2-0.7 0.1-0.4 0.4-0.7 0.3-0.2 0.7-0.2 0.4 0.1 0.7 0.4l1.6 2.2 4.1-6.2q0.2-0.3 0.6-0.4 0.5-0.1 0.8 0.1 0.3 0.3 0.4 0.7 0.1 0.4-0.1 0.7l-4.9 7.4q-0.1 0.1-0.2 0.1-0.1 0.1-0.2 0.2-0.1 0-0.2 0.1-0.1 0-0.2 0z"/>
</svg>